<svg width="38" height="9" viewBox="0 0 38 9" fill="none" xmlns="http://www.w3.org/2000/svg">
<path d="M6.26953 4.28418V7.10156C6.15885 7.23503 5.98796 7.37988 5.75684 7.53613C5.52572 7.68913 5.22786 7.82096 4.86328 7.93164C4.4987 8.04232 4.05762 8.09766 3.54004 8.09766C3.08105 8.09766 2.66276 8.02279 2.28516 7.87305C1.90755 7.72005 1.58203 7.49707 1.30859 7.2041C1.03841 6.91113 0.830078 6.55306 0.683594 6.12988C0.537109 5.70345 0.463867 5.2168 0.463867 4.66992V4.22559C0.463867 3.67871 0.533854 3.19206 0.673828 2.76562C0.817057 2.33919 1.02051 1.97949 1.28418 1.68652C1.54785 1.39355 1.86198 1.17057 2.22656 1.01758C2.59115 0.864583 2.99642 0.788086 3.44238 0.788086C4.06087 0.788086 4.56868 0.888997 4.96582 1.09082C5.36296 1.28939 5.66569 1.56608 5.87402 1.9209C6.08561 2.27246 6.21582 2.67611 6.26465 3.13184H4.84375C4.80794 2.89095 4.73958 2.68099 4.63867 2.50195C4.53776 2.32292 4.3929 2.18294 4.2041 2.08203C4.01855 1.98112 3.77767 1.93066 3.48145 1.93066C3.2373 1.93066 3.01921 1.98112 2.82715 2.08203C2.63835 2.17969 2.47884 2.32454 2.34863 2.5166C2.21842 2.70866 2.11914 2.94629 2.05078 3.22949C1.98242 3.5127 1.94824 3.84147 1.94824 4.21582V4.66992C1.94824 5.04102 1.98405 5.36979 2.05566 5.65625C2.12728 5.93945 2.23307 6.17871 2.37305 6.37402C2.51628 6.56608 2.69206 6.71094 2.90039 6.80859C3.10872 6.90625 3.35124 6.95508 3.62793 6.95508C3.85905 6.95508 4.05111 6.93555 4.2041 6.89648C4.36035 6.85742 4.48568 6.81022 4.58008 6.75488C4.67773 6.69629 4.7526 6.64095 4.80469 6.58887V5.3291H3.4668V4.28418H6.26953ZM12.2217 6.85742V8H8.4375V6.85742H12.2217ZM8.91602 0.890625V8H7.45117V0.890625H8.91602ZM11.7285 3.78613V4.89941H8.4375V3.78613H11.7285ZM12.2168 0.890625V2.03809H8.4375V0.890625H12.2168ZM17.6465 6.85742V8H14.0674V6.85742H17.6465ZM14.541 0.890625V8H13.0762V0.890625H14.541ZM21.4746 2.10645L19.541 8H17.9834L20.625 0.890625H21.6162L21.4746 2.10645ZM23.0811 8L21.1426 2.10645L20.9863 0.890625H21.9873L24.6436 8H23.0811ZM22.9932 5.35352V6.50098H19.2383V5.35352H22.9932ZM27.4854 8H25.9375L25.9473 6.85742H27.4854C27.8695 6.85742 28.1934 6.77116 28.457 6.59863C28.7207 6.42285 28.9193 6.16732 29.0527 5.83203C29.1895 5.49674 29.2578 5.09147 29.2578 4.61621V4.26953C29.2578 3.90495 29.2188 3.58431 29.1406 3.30762C29.0658 3.03092 28.9535 2.79818 28.8037 2.60938C28.654 2.42057 28.4701 2.27897 28.252 2.18457C28.0339 2.08691 27.7832 2.03809 27.5 2.03809H25.9082V0.890625H27.5C27.9753 0.890625 28.4098 0.972005 28.8037 1.13477C29.2008 1.29427 29.5443 1.52376 29.834 1.82324C30.1237 2.12272 30.3467 2.48079 30.5029 2.89746C30.6624 3.31087 30.7422 3.77148 30.7422 4.2793V4.61621C30.7422 5.12077 30.6624 5.58138 30.5029 5.99805C30.3467 6.41471 30.1237 6.77279 29.834 7.07227C29.5475 7.36849 29.2041 7.59798 28.8037 7.76074C28.4066 7.92025 27.9671 8 27.4854 8ZM26.7676 0.890625V8H25.3027V0.890625H26.7676ZM37.6465 4.2793V4.61621C37.6465 5.15658 37.5732 5.6416 37.4268 6.07129C37.2803 6.50098 37.0736 6.86719 36.8066 7.16992C36.5397 7.4694 36.2207 7.69889 35.8496 7.8584C35.4818 8.0179 35.0732 8.09766 34.624 8.09766C34.1781 8.09766 33.7695 8.0179 33.3984 7.8584C33.0306 7.69889 32.7116 7.4694 32.4414 7.16992C32.1712 6.86719 31.9613 6.50098 31.8115 6.07129C31.665 5.6416 31.5918 5.15658 31.5918 4.61621V4.2793C31.5918 3.73568 31.665 3.25065 31.8115 2.82422C31.958 2.39453 32.1647 2.02832 32.4316 1.72559C32.7018 1.42285 33.0208 1.19173 33.3887 1.03223C33.7598 0.872721 34.1683 0.792969 34.6143 0.792969C35.0635 0.792969 35.472 0.872721 35.8398 1.03223C36.2109 1.19173 36.5299 1.42285 36.7969 1.72559C37.0671 2.02832 37.2754 2.39453 37.4219 2.82422C37.5716 3.25065 37.6465 3.73568 37.6465 4.2793ZM36.167 4.61621V4.26953C36.167 3.89193 36.1328 3.5599 36.0645 3.27344C35.9961 2.98698 35.8952 2.74609 35.7617 2.55078C35.6283 2.35547 35.4655 2.20898 35.2734 2.11133C35.0814 2.01042 34.8617 1.95996 34.6143 1.95996C34.3669 1.95996 34.1471 2.01042 33.9551 2.11133C33.7663 2.20898 33.6051 2.35547 33.4717 2.55078C33.3415 2.74609 33.2422 2.98698 33.1738 3.27344C33.1055 3.5599 33.0713 3.89193 33.0713 4.26953V4.61621C33.0713 4.99056 33.1055 5.32259 33.1738 5.6123C33.2422 5.89876 33.3431 6.14128 33.4766 6.33984C33.61 6.53516 33.7728 6.68327 33.9648 6.78418C34.1569 6.88509 34.3766 6.93555 34.624 6.93555C34.8714 6.93555 35.0911 6.88509 35.2832 6.78418C35.4753 6.68327 35.6364 6.53516 35.7666 6.33984C35.8968 6.14128 35.9961 5.89876 36.0645 5.6123C36.1328 5.32259 36.167 4.99056 36.167 4.61621Z" fill="#C47F17"/>
</svg>
